<svg width="392" height="68" viewBox="0 0 392 68" fill="none" xmlns="http://www.w3.org/2000/svg">
<mask id="path-1-inside-1_36_41" fill="white">
<path d="M0 68V16C0 7.16344 7.16345 0 16 0L52.4062 0V17.0928C48.5777 19.3084 46 23.4459 46 28.1875C46.0001 35.2635 51.7366 40.9999 58.8125 41C65.8885 41 71.6249 35.2636 71.625 28.1875C71.625 23.4457 69.0475 19.3083 65.2188 17.0928V0L98.0361 0V17.0928C94.2072 19.3083 91.6299 23.4456 91.6299 28.1875C91.6299 35.2635 97.3655 40.9998 104.441 41C111.517 40.9998 117.254 35.2635 117.254 28.1875C117.254 23.4463 114.677 19.3095 110.849 17.0937V0L143.664 0V17.0937C139.836 19.3094 137.259 23.4461 137.259 28.1875C137.259 35.2636 142.994 40.9999 150.07 41C157.146 41 162.883 35.2636 162.883 28.1875C162.883 23.4459 160.305 19.3093 156.477 17.0937V0L189.292 0V17.0937C185.464 19.3094 182.887 23.4462 182.887 28.1875C182.887 35.2634 188.623 40.9996 195.698 41C202.774 41 208.511 35.2636 208.511 28.1875C208.511 23.4459 205.933 19.3093 202.104 17.0937V0L234.922 0V17.0937C231.093 19.3093 228.516 23.4458 228.516 28.1875C228.516 35.2635 234.251 40.9998 241.327 41C248.403 41 254.14 35.2636 254.14 28.1875C254.14 23.4459 251.562 19.3093 247.733 17.0937V0L280.55 0V17.0937C276.721 19.3094 274.144 23.4461 274.144 28.1875C274.144 35.2636 279.88 40.9999 286.956 41C294.032 41 299.769 35.2636 299.769 28.1875C299.768 23.4459 297.191 19.3093 293.362 17.0937V0L326.179 0V17.0937C322.35 19.3094 319.773 23.4461 319.772 28.1875C319.772 35.2636 325.509 40.9999 332.585 41C339.661 40.9998 345.397 35.2635 345.397 28.1875C345.397 23.446 342.82 19.3094 338.991 17.0937V0L376 0C384.837 0 392 7.16344 392 16V68L0 68Z"/>
</mask>
<path d="M0 68V16C0 7.16344 7.16345 0 16 0L52.4062 0V17.0928C48.5777 19.3084 46 23.4459 46 28.1875C46.0001 35.2635 51.7366 40.9999 58.8125 41C65.8885 41 71.6249 35.2636 71.625 28.1875C71.625 23.4457 69.0475 19.3083 65.2188 17.0928V0L98.0361 0V17.0928C94.2072 19.3083 91.6299 23.4456 91.6299 28.1875C91.6299 35.2635 97.3655 40.9998 104.441 41C111.517 40.9998 117.254 35.2635 117.254 28.1875C117.254 23.4463 114.677 19.3095 110.849 17.0937V0L143.664 0V17.0937C139.836 19.3094 137.259 23.4461 137.259 28.1875C137.259 35.2636 142.994 40.9999 150.07 41C157.146 41 162.883 35.2636 162.883 28.1875C162.883 23.4459 160.305 19.3093 156.477 17.0937V0L189.292 0V17.0937C185.464 19.3094 182.887 23.4462 182.887 28.1875C182.887 35.2634 188.623 40.9996 195.698 41C202.774 41 208.511 35.2636 208.511 28.1875C208.511 23.4459 205.933 19.3093 202.104 17.0937V0L234.922 0V17.0937C231.093 19.3093 228.516 23.4458 228.516 28.1875C228.516 35.2635 234.251 40.9998 241.327 41C248.403 41 254.14 35.2636 254.14 28.1875C254.14 23.4459 251.562 19.3093 247.733 17.0937V0L280.55 0V17.0937C276.721 19.3094 274.144 23.4461 274.144 28.1875C274.144 35.2636 279.88 40.9999 286.956 41C294.032 41 299.769 35.2636 299.769 28.1875C299.768 23.4459 297.191 19.3093 293.362 17.0937V0L326.179 0V17.0937C322.35 19.3094 319.773 23.4461 319.772 28.1875C319.772 35.2636 325.509 40.9999 332.585 41C339.661 40.9998 345.397 35.2635 345.397 28.1875C345.397 23.446 342.82 19.3094 338.991 17.0937V0L376 0C384.837 0 392 7.16344 392 16V68L0 68Z" fill="white"/>
<path d="M0 68H-1V69H0V68ZM52.4062 0L53.4062 0V-1L52.4062 -1V0ZM52.4062 17.0928L52.9071 17.9583L53.4062 17.6694V17.0928H52.4062ZM46 28.1875H45V28.1875L46 28.1875ZM58.8125 41L58.8125 42H58.8125V41ZM71.625 28.1875L72.625 28.1875V28.1875H71.625ZM65.2188 17.0928H64.2188V17.6695L64.7179 17.9583L65.2188 17.0928ZM65.2188 0V-1L64.2188 -1V0L65.2188 0ZM98.0361 0L99.0361 0V-1L98.0361 -1V0ZM98.0361 17.0928L98.537 17.9583L99.0361 17.6695V17.0928H98.0361ZM91.6299 28.1875H90.6299V28.1875H91.6299ZM104.441 41L104.441 42H104.441L104.441 41ZM117.254 28.1875H118.254V28.1875H117.254ZM110.849 17.0937H109.849V17.6704L110.348 17.9592L110.849 17.0937ZM110.849 0V-1H109.849V0L110.849 0ZM143.664 0L144.664 0V-1H143.664V0ZM143.664 17.0937L144.165 17.9593L144.664 17.6704V17.0937H143.664ZM137.259 28.1875L136.259 28.1875V28.1875H137.259ZM150.07 41L150.07 42H150.07V41ZM162.883 28.1875H163.883V28.1875L162.883 28.1875ZM156.477 17.0937H155.477V17.6704L155.976 17.9593L156.477 17.0937ZM156.477 0V-1L155.477 -1V0L156.477 0ZM189.292 0L190.292 0V-1L189.292 -1V0ZM189.292 17.0937L189.793 17.9592L190.292 17.6704V17.0937H189.292ZM182.887 28.1875L181.887 28.1875V28.1875H182.887ZM195.698 41L195.698 42H195.698V41ZM208.511 28.1875H209.511V28.1875L208.511 28.1875ZM202.104 17.0937H201.104V17.6704L201.604 17.9593L202.104 17.0937ZM202.104 0V-1L201.104 -1V0L202.104 0ZM234.922 0L235.922 0V-1L234.922 -1V0ZM234.922 17.0937L235.423 17.9593L235.922 17.6704V17.0937H234.922ZM228.516 28.1875L227.516 28.1875V28.1875L228.516 28.1875ZM241.327 41L241.327 42H241.327V41ZM254.14 28.1875H255.14V28.1875L254.14 28.1875ZM247.733 17.0937L246.733 17.0937V17.6704L247.233 17.9593L247.733 17.0937ZM247.733 0V-1L246.733 -1V0L247.733 0ZM280.55 0L281.55 0V-1L280.55 -1V0ZM280.55 17.0937L281.051 17.9592L281.55 17.6704V17.0937H280.55ZM274.144 28.1875L273.144 28.1875V28.1875H274.144ZM286.956 41L286.956 42H286.956V41ZM299.769 28.1875H300.769V28.1875L299.769 28.1875ZM293.362 17.0937H292.362V17.6704L292.861 17.9593L293.362 17.0937ZM293.362 0V-1H292.362V0L293.362 0ZM326.179 0L327.179 0V-1H326.179V0ZM326.179 17.0937L326.68 17.9593L327.179 17.6704V17.0937H326.179ZM319.772 28.1875L318.772 28.1875V28.1875H319.772ZM332.585 41L332.585 42H332.585L332.585 41ZM345.397 28.1875H346.397V28.1875L345.397 28.1875ZM338.991 17.0937H337.991V17.6704L338.49 17.9593L338.991 17.0937ZM338.991 0V-1L337.991 -1V0L338.991 0ZM392 68V69H393V68H392ZM0 68H1V16L0 16H-1V68H0ZM0 16L1 16C1 7.71573 7.71573 1 16 1V0V-1C6.61118 -1 -1 6.61116 -1 16H0ZM16 0V1L52.4062 1V0V-1L16 -1V0ZM52.4062 0L51.4062 0V17.0928H52.4062H53.4062V0L52.4062 0ZM52.4062 17.0928L51.9054 16.2273C47.7811 18.614 45 23.074 45 28.1875H46H47C47 23.8177 49.3743 20.0028 52.9071 17.9583L52.4062 17.0928ZM46 28.1875L45 28.1875C45.0001 35.8158 51.1844 41.9999 58.8125 42L58.8125 41L58.8125 40C52.2889 39.9999 47.0001 34.7112 47 28.1875L46 28.1875ZM58.8125 41V42C66.4408 42 72.6249 35.8159 72.625 28.1875L71.625 28.1875L70.625 28.1875C70.6249 34.7113 65.3362 40 58.8125 40V41ZM71.625 28.1875H72.625C72.625 23.0739 69.8441 18.614 65.7196 16.2272L65.2188 17.0928L64.7179 17.9583C68.2509 20.0027 70.625 23.8175 70.625 28.1875H71.625ZM65.2188 17.0928H66.2188V0L65.2188 0L64.2188 0V17.0928H65.2188ZM65.2188 0V1L98.0361 1V0V-1L65.2188 -1V0ZM98.0361 0L97.0361 0V17.0928H98.0361H99.0361V0L98.0361 0ZM98.0361 17.0928L97.5353 16.2272C93.4105 18.6139 90.6299 23.0737 90.6299 28.1875H91.6299L92.6299 28.1875C92.6299 23.8174 95.0038 20.0027 98.537 17.9583L98.0361 17.0928ZM91.6299 28.1875H90.6299C90.6299 35.8158 96.8132 41.9998 104.441 42L104.441 41L104.441 40C97.9179 39.9999 92.6299 34.7113 92.6299 28.1875L91.6299 28.1875ZM104.441 41L104.441 42C112.069 41.9997 118.254 35.8158 118.254 28.1875H117.254H116.254C116.254 34.7112 110.965 39.9998 104.441 40L104.441 41ZM117.254 28.1875H118.254C118.254 23.0744 115.473 18.6152 111.35 16.2283L110.849 17.0937L110.348 17.9592C113.88 20.0038 116.254 23.8182 116.254 28.1875H117.254ZM110.849 17.0937L111.849 17.0937V0L110.849 0L109.849 0V17.0937H110.849ZM110.849 0V1L143.664 1V0V-1L110.849 -1V0ZM143.664 0L142.664 0V17.0937H143.664H144.664V0L143.664 0ZM143.664 17.0937L143.163 16.2282C139.039 18.6151 136.259 23.0743 136.259 28.1875L137.259 28.1875L138.259 28.1875C138.259 23.8179 140.632 20.0037 144.165 17.9593L143.664 17.0937ZM137.259 28.1875H136.259C136.259 35.8158 142.442 41.9998 150.07 42L150.07 41L150.07 40C143.547 39.9999 138.259 34.7113 138.259 28.1875H137.259ZM150.07 41V42C157.699 41.9999 163.883 35.8159 163.883 28.1875H162.883H161.883C161.883 34.7113 156.594 40 150.07 40V41ZM162.883 28.1875L163.883 28.1875C163.883 23.074 161.102 18.6149 156.977 16.2282L156.477 17.0937L155.976 17.9593C159.508 20.0037 161.883 23.8179 161.883 28.1875L162.883 28.1875ZM156.477 17.0937H157.477V0L156.477 0L155.477 0V17.0937H156.477ZM156.477 0V1L189.292 1V0V-1L156.477 -1V0ZM189.292 0L188.292 0V17.0937L189.292 17.0937H190.292V0L189.292 0ZM189.292 17.0937L188.791 16.2283C184.667 18.6151 181.887 23.0744 181.887 28.1875L182.887 28.1875L183.887 28.1875C183.887 23.818 186.261 20.0038 189.793 17.9592L189.292 17.0937ZM182.887 28.1875H181.887C181.887 35.8156 188.07 41.9996 195.698 42L195.698 41L195.698 40C189.175 39.9996 183.887 34.7111 183.887 28.1875H182.887ZM195.698 41V42C203.327 42 209.511 35.8159 209.511 28.1875H208.511L207.511 28.1875C207.511 34.7114 202.222 40 195.698 40V41ZM208.511 28.1875L209.511 28.1875C209.511 23.074 206.73 18.6149 202.605 16.2282L202.104 17.0937L201.604 17.9593C205.136 20.0037 207.511 23.8178 207.511 28.1875L208.511 28.1875ZM202.104 17.0937H203.104V0L202.104 0L201.104 0V17.0937H202.104ZM202.104 0V1L234.922 1V0V-1L202.104 -1V0ZM234.922 0L233.922 0V17.0937H234.922H235.922V0L234.922 0ZM234.922 17.0937L234.421 16.2282C230.297 18.6149 227.516 23.0739 227.516 28.1875L228.516 28.1875L229.516 28.1875C229.516 23.8177 231.89 20.0037 235.423 17.9593L234.922 17.0937ZM228.516 28.1875L227.516 28.1875C227.516 35.8157 233.699 41.9998 241.327 42L241.327 41L241.327 40C234.804 39.9998 229.516 34.7113 229.516 28.1875H228.516ZM241.327 41V42C248.955 42 255.14 35.8159 255.14 28.1875H254.14H253.14C253.14 34.7113 247.851 40 241.327 40V41ZM254.14 28.1875L255.14 28.1875C255.14 23.0739 252.359 18.6149 248.234 16.2282L247.733 17.0937L247.233 17.9593C250.765 20.0037 253.14 23.8178 253.14 28.1875L254.14 28.1875ZM247.733 17.0937H248.733V0L247.733 0L246.733 0V17.0937L247.733 17.0937ZM247.733 0V1L280.55 1V0V-1L247.733 -1V0ZM280.55 0L279.55 0V17.0937H280.55H281.55V0L280.55 0ZM280.55 17.0937L280.049 16.2283C275.925 18.615 273.144 23.0741 273.144 28.1875L274.144 28.1875L275.144 28.1875C275.144 23.818 277.518 20.0038 281.051 17.9592L280.55 17.0937ZM274.144 28.1875H273.144C273.144 35.8159 279.328 41.9998 286.956 42L286.956 41L286.956 40C280.432 39.9999 275.144 34.7112 275.144 28.1875H274.144ZM286.956 41V42C294.584 42 300.769 35.8159 300.769 28.1875H299.769H298.769C298.769 34.7114 293.48 40 286.956 40V41ZM299.769 28.1875L300.769 28.1875C300.768 23.074 297.987 18.6149 293.863 16.2282L293.362 17.0937L292.861 17.9593C296.394 20.0037 298.769 23.8178 298.769 28.1875L299.769 28.1875ZM293.362 17.0937H294.362V0L293.362 0L292.362 0V17.0937H293.362ZM293.362 0V1L326.179 1V0V-1L293.362 -1V0ZM326.179 0L325.179 0V17.0937H326.179H327.179V0L326.179 0ZM326.179 17.0937L325.678 16.2282C321.554 18.615 318.773 23.0741 318.772 28.1875L319.772 28.1875L320.772 28.1875C320.773 23.818 323.147 20.0038 326.68 17.9593L326.179 17.0937ZM319.772 28.1875H318.772C318.772 35.8159 324.957 41.9999 332.585 42L332.585 41L332.585 40C326.061 39.9999 320.772 34.7113 320.772 28.1875H319.772ZM332.585 41L332.585 42C340.213 41.9998 346.397 35.8158 346.397 28.1875H345.397H344.397C344.397 34.7112 339.109 39.9998 332.585 40L332.585 41ZM345.397 28.1875L346.397 28.1875C346.397 23.0741 343.616 18.615 339.492 16.2282L338.991 17.0937L338.49 17.9593C342.023 20.0038 344.397 23.818 344.397 28.1875L345.397 28.1875ZM338.991 17.0937H339.991V0L338.991 0L337.991 0V17.0937H338.991ZM338.991 0V1L376 1V0V-1L338.991 -1V0ZM376 0V1C384.284 1 391 7.71573 391 16H392H393C393 6.61116 385.389 -1 376 -1V0ZM392 16H391V68H392H393V16H392ZM392 68V67L0 67V68V69L392 69V68Z" fill="black" mask="url(#path-1-inside-1_36_41)"/>
</svg>
