<svg width="52" height="160" viewBox="0 0 52 160" fill="none" xmlns="http://www.w3.org/2000/svg">
<mask id="path-1-inside-1_29_286" fill="white">
<path d="M52 160H16C7.16344 160 0 152.837 0 144V132.45H11.9629C13.5134 135.129 16.4083 136.933 19.7266 136.934C24.6787 136.934 28.6933 132.919 28.6934 127.967C28.6934 123.015 24.6787 119 19.7266 119C16.4083 119 13.5134 120.804 11.9629 123.483H0V100.45H11.9629C13.5135 103.129 16.4083 104.934 19.7266 104.934C24.6787 104.934 28.6933 100.919 28.6934 95.9668C28.6934 91.0146 24.6787 87 19.7266 87C16.4083 87.0001 13.5135 88.8041 11.9629 91.4834H0V68.4502H11.9629C13.5135 71.1295 16.4083 72.9335 19.7266 72.9336C24.6787 72.9336 28.6933 68.9189 28.6934 63.9668C28.6934 59.0146 24.6787 55 19.7266 55C16.4083 55.0001 13.5135 56.8041 11.9629 59.4834H0V36.7666H11.9629C13.5135 39.4459 16.4083 41.2499 19.7266 41.25C24.6787 41.25 28.6933 37.2353 28.6934 32.2832C28.6933 27.3311 24.6787 23.3164 19.7266 23.3164C16.4083 23.3165 13.5135 25.1205 11.9629 27.7998H0V16C2.06162e-06 7.16345 7.16345 0 16 0H52V160Z"/>
</mask>
<path d="M52 160H16C7.16344 160 0 152.837 0 144V132.45H11.9629C13.5134 135.129 16.4083 136.933 19.7266 136.934C24.6787 136.934 28.6933 132.919 28.6934 127.967C28.6934 123.015 24.6787 119 19.7266 119C16.4083 119 13.5134 120.804 11.9629 123.483H0V100.45H11.9629C13.5135 103.129 16.4083 104.934 19.7266 104.934C24.6787 104.934 28.6933 100.919 28.6934 95.9668C28.6934 91.0146 24.6787 87 19.7266 87C16.4083 87.0001 13.5135 88.8041 11.9629 91.4834H0V68.4502H11.9629C13.5135 71.1295 16.4083 72.9335 19.7266 72.9336C24.6787 72.9336 28.6933 68.9189 28.6934 63.9668C28.6934 59.0146 24.6787 55 19.7266 55C16.4083 55.0001 13.5135 56.8041 11.9629 59.4834H0V36.7666H11.9629C13.5135 39.4459 16.4083 41.2499 19.7266 41.25C24.6787 41.25 28.6933 37.2353 28.6934 32.2832C28.6933 27.3311 24.6787 23.3164 19.7266 23.3164C16.4083 23.3165 13.5135 25.1205 11.9629 27.7998H0V16C2.06162e-06 7.16345 7.16345 0 16 0H52V160Z" fill="#F2D88F"/>
<path d="M52 160V161H53V160H52ZM0 132.45V131.45H-1V132.45H0ZM11.9629 132.45L12.8284 131.949L12.5396 131.45H11.9629V132.45ZM19.7266 136.934L19.7265 137.934H19.7266V136.934ZM28.6934 127.967L29.6934 127.967V127.967H28.6934ZM19.7266 119V118H19.7265L19.7266 119ZM11.9629 123.483V124.483H12.5396L12.8284 123.984L11.9629 123.483ZM0 123.483H-1V124.483H0V123.483ZM0 100.45V99.4502H-1V100.45H0ZM11.9629 100.45L12.8284 99.9493L12.5396 99.4502H11.9629V100.45ZM19.7266 104.934L19.7265 105.934H19.7266V104.934ZM28.6934 95.9668L29.6934 95.9668V95.9668H28.6934ZM19.7266 87V86H19.7265L19.7266 87ZM11.9629 91.4834V92.4834H12.5396L12.8284 91.9843L11.9629 91.4834ZM0 91.4834H-1V92.4834H0V91.4834ZM0 68.4502V67.4502H-1V68.4502H0ZM11.9629 68.4502L12.8284 67.9493L12.5396 67.4502H11.9629V68.4502ZM19.7266 72.9336L19.7265 73.9336H19.7266V72.9336ZM28.6934 63.9668L29.6934 63.9668V63.9668H28.6934ZM19.7266 55V54H19.7265L19.7266 55ZM11.9629 59.4834V60.4834H12.5396L12.8284 59.9843L11.9629 59.4834ZM0 59.4834H-1V60.4834H0V59.4834ZM0 36.7666V35.7666H-1V36.7666H0ZM11.9629 36.7666L12.8284 36.2657L12.5396 35.7666H11.9629V36.7666ZM19.7266 41.25L19.7265 42.25H19.7266V41.25ZM28.6934 32.2832L29.6934 32.2832V32.2832L28.6934 32.2832ZM19.7266 23.3164V22.3164H19.7265L19.7266 23.3164ZM11.9629 27.7998V28.7998H12.5396L12.8284 28.3007L11.9629 27.7998ZM0 27.7998H-1V28.7998H0V27.7998ZM0 16H-1V16H0ZM52 0H53V-1H52V0ZM52 160V159H16V160V161H52V160ZM16 160V159C7.71573 159 1 152.284 1 144H0H-1C-1 153.389 6.61116 161 16 161V160ZM0 144H1V132.45H0H-1V144H0ZM0 132.45V133.45H11.9629V132.45V131.45H0V132.45ZM11.9629 132.45L11.0974 132.951C12.819 135.926 16.0364 137.933 19.7265 137.934L19.7266 136.934L19.7266 135.934C16.7803 135.933 14.2078 134.333 12.8284 131.949L11.9629 132.45ZM19.7266 136.934V137.934C25.231 137.934 29.6933 133.471 29.6934 127.967L28.6934 127.967L27.6934 127.967C27.6933 132.367 24.1264 135.934 19.7266 135.934V136.934ZM28.6934 127.967H29.6934C29.6934 122.462 25.231 118 19.7266 118V119V120C24.1265 120 27.6934 123.567 27.6934 127.967H28.6934ZM19.7266 119L19.7265 118C16.0364 118 12.819 120.008 11.0974 122.983L11.9629 123.483L12.8284 123.984C14.2078 121.601 16.7802 120 19.7266 120L19.7266 119ZM11.9629 123.483V122.483H0V123.483V124.483H11.9629V123.483ZM0 123.483H1V100.45H0H-1V123.483H0ZM0 100.45V101.45H11.9629V100.45V99.4502H0V100.45ZM11.9629 100.45L11.0974 100.951C12.8191 103.926 16.0363 105.934 19.7265 105.934L19.7266 104.934L19.7266 103.934C16.7803 103.934 14.2079 102.333 12.8284 99.9493L11.9629 100.45ZM19.7266 104.934V105.934C25.231 105.934 29.6933 101.471 29.6934 95.9668L28.6934 95.9668L27.6934 95.9668C27.6933 100.367 24.1264 103.934 19.7266 103.934V104.934ZM28.6934 95.9668H29.6934C29.6934 90.4623 25.231 86 19.7266 86V87V88C24.1265 88 27.6934 91.5669 27.6934 95.9668H28.6934ZM19.7266 87L19.7265 86C16.0363 86.0001 12.819 88.0075 11.0974 90.9825L11.9629 91.4834L12.8284 91.9843C14.2079 89.6006 16.7802 88 19.7266 88L19.7266 87ZM11.9629 91.4834V90.4834H0V91.4834V92.4834H11.9629V91.4834ZM0 91.4834H1V68.4502H0H-1V91.4834H0ZM0 68.4502V69.4502H11.9629V68.4502V67.4502H0V68.4502ZM11.9629 68.4502L11.0974 68.9511C12.8191 71.926 16.0363 73.9335 19.7265 73.9336L19.7266 72.9336L19.7266 71.9336C16.7803 71.9335 14.2079 70.3329 12.8284 67.9493L11.9629 68.4502ZM19.7266 72.9336V73.9336C25.231 73.9336 29.6933 69.4712 29.6934 63.9668L28.6934 63.9668L27.6934 63.9668C27.6933 68.3667 24.1264 71.9336 19.7266 71.9336V72.9336ZM28.6934 63.9668H29.6934C29.6934 58.4623 25.231 54 19.7266 54V55V56C24.1265 56 27.6934 59.5669 27.6934 63.9668H28.6934ZM19.7266 55L19.7265 54C16.0363 54.0001 12.819 56.0075 11.0974 58.9825L11.9629 59.4834L12.8284 59.9843C14.2079 57.6006 16.7802 56 19.7266 56L19.7266 55ZM11.9629 59.4834V58.4834H0V59.4834V60.4834H11.9629V59.4834ZM0 59.4834H1V36.7666H0H-1V59.4834H0ZM0 36.7666V37.7666H11.9629V36.7666V35.7666H0V36.7666ZM11.9629 36.7666L11.0974 37.2675C12.819 40.2424 16.0364 42.2499 19.7265 42.25L19.7266 41.25L19.7266 40.25C16.7803 40.2499 14.2079 38.6493 12.8284 36.2657L11.9629 36.7666ZM19.7266 41.25V42.25C25.231 42.25 29.6933 37.7876 29.6934 32.2832L28.6934 32.2832L27.6934 32.2832C27.6933 36.6831 24.1264 40.25 19.7266 40.25V41.25ZM28.6934 32.2832L29.6934 32.2832C29.6933 26.7788 25.231 22.3164 19.7266 22.3164V23.3164V24.3164C24.1264 24.3164 27.6933 27.8834 27.6934 32.2832L28.6934 32.2832ZM19.7266 23.3164L19.7265 22.3164C16.0364 22.3165 12.819 24.324 11.0974 27.2989L11.9629 27.7998L12.8284 28.3007C14.2079 25.9171 16.7803 24.3165 19.7266 24.3164L19.7266 23.3164ZM11.9629 27.7998V26.7998H0V27.7998V28.7998H11.9629V27.7998ZM0 27.7998H1V16H0H-1V27.7998H0ZM0 16H1C1 7.71573 7.71573 1 16 1V0V-1C6.61116 -1 -0.999998 6.61116 -1 16H0ZM16 0V1H52V0V-1H16V0ZM52 0H51V160H52H53V0H52Z" fill="black" mask="url(#path-1-inside-1_29_286)"/>
</svg>
