<svg width="201" height="214" viewBox="0 0 201 214" fill="none" xmlns="http://www.w3.org/2000/svg">
<path d="M198.757 -183.728C198.914 -185.557 201.588 -185.557 201.745 -183.728L212.219 -61.6348C212.436 -59.109 215.841 -58.4723 216.955 -60.749L270.827 -170.814C271.635 -172.463 274.129 -171.496 273.614 -169.734L239.276 -52.1025C238.565 -49.669 241.511 -47.8457 243.372 -49.5664L333.365 -132.738C334.714 -133.984 336.691 -132.182 335.574 -130.725L261.061 -33.4404C259.519 -31.4278 261.607 -28.6628 263.965 -29.5947L377.927 -74.6416C379.634 -75.3158 380.826 -72.9215 379.259 -71.9658L274.634 -8.16895C272.47 -6.84913 273.417 -3.51698 275.952 -3.53418L398.491 -4.37012C400.327 -4.38256 400.574 -1.71952 398.767 -1.39453L278.161 20.2998C275.666 20.7486 275.346 24.1978 277.716 25.0977L392.282 68.584C393.999 69.2354 393.267 71.8082 391.465 71.459L271.166 48.1201C268.678 47.6373 267.134 50.7385 269.019 52.4336L360.139 134.369C361.504 135.597 359.892 137.731 358.338 136.754L254.594 71.5352C252.448 70.1859 249.887 72.5197 251.032 74.7812L306.402 184.101C307.231 185.738 304.957 187.146 303.861 185.674L230.682 87.3818C229.168 85.3484 225.938 86.5995 226.189 89.1221L238.328 211.062C238.51 212.888 235.88 213.379 235.39 211.61L202.66 93.5205C201.983 91.0775 198.519 91.0775 197.842 93.5205L165.113 211.61C164.622 213.379 161.993 212.888 162.174 211.062L174.314 89.1221C174.565 86.5995 171.334 85.3484 169.821 87.3818L96.6418 185.674C95.5456 187.146 93.2716 185.738 94.1008 184.101L149.47 74.7812C150.615 72.5197 148.055 70.1859 145.908 71.5352L42.1643 136.754C40.6101 137.731 38.9985 135.597 40.3635 134.369L131.484 52.4336H131.485C133.37 50.7385 131.825 47.6373 129.336 48.1201L9.03734 71.459C7.2354 71.8082 6.5038 69.2354 8.21996 68.584L122.786 25.0977C125.156 24.1978 124.836 20.7486 122.341 20.2998L1.73558 -1.39453C-0.0712539 -1.71954 0.17536 -4.38259 2.01097 -4.37012L124.55 -3.53418C127.085 -3.51698 128.033 -6.84914 125.868 -8.16895L21.2434 -71.9658C19.6763 -72.9215 20.8685 -75.3158 22.5754 -74.6416L136.537 -29.5947C138.895 -28.6628 140.983 -31.4278 139.442 -33.4404L64.928 -130.725C63.8118 -132.182 65.7888 -133.984 67.1369 -132.738L157.13 -49.5664C158.992 -47.8458 161.937 -49.669 161.227 -52.1025L126.888 -169.734C126.373 -171.497 128.868 -172.463 129.675 -170.814L183.547 -60.749C184.662 -58.4723 188.067 -59.109 188.283 -61.6348L198.757 -183.728Z" fill="#F08C21" stroke="black"/>
</svg>
