<svg width="312" height="349" viewBox="0 0 312 349" fill="none" xmlns="http://www.w3.org/2000/svg">
<path d="M18.377 214.245L18.5312 216.043L19.3242 214.423L111.274 26.5557L52.6631 227.338L52.1582 229.07L53.4824 227.846L207.089 85.8818L79.9043 251.933L78.8076 253.364L80.4854 252.701L275.004 175.812L96.4219 284.707L94.8818 285.646L96.6855 285.634L305.841 284.205L99.9854 321.234L98.209 321.554L99.8955 322.194L295.445 396.419L90.1113 356.583L88.3408 356.239L89.6816 357.445L245.212 497.298L68.1357 385.978L66.6084 385.018L67.4238 386.627L161.932 573.221L37.0254 405.448L35.9482 404.002L36.127 405.797L56.8457 613.928L0.981445 412.366L0.5 410.628L0.0185547 412.366L-55.8467 613.928L-35.127 405.797L-34.9482 404.002L-36.0254 405.448L-160.933 573.221L-66.4238 386.627L-65.6084 385.018L-67.1357 385.978L-244.213 497.298L-88.6816 357.445L-87.3408 356.239L-89.1113 356.583L-294.446 396.419L-98.8955 322.194L-97.209 321.554L-98.9854 321.234L-304.842 284.205L-95.6855 285.634L-93.8818 285.646L-95.4219 284.707L-274.005 175.812L-79.4854 252.701L-77.8076 253.364L-78.9043 251.933L-206.09 85.8818L-52.4824 227.846L-51.1582 229.07L-51.6631 227.338L-110.275 26.5557L-18.3242 214.423L-17.5312 216.043L-17.377 214.245L0.5 5.84863L18.377 214.245Z" fill="#F08C21" stroke="black"/>
</svg>
