<svg width="20" height="20" viewBox="0 0 20 20" fill="none" xmlns="http://www.w3.org/2000/svg">
<path fill-rule="evenodd" clip-rule="evenodd" d="M3.81251 10C2.992 9.17949 2.53104 8.06663 2.53104 6.90625C2.53104 5.74587 2.992 4.63301 3.81251 3.8125C4.63302 2.99199 5.74588 2.53103 6.90626 2.53103C8.06664 2.53103 9.1795 2.99199 10 3.8125L16.1875 10C16.5938 10.4063 16.9161 10.8886 17.1359 11.4194C17.3558 11.9503 17.469 12.5192 17.469 13.0938C17.469 13.6683 17.3558 14.2372 17.1359 14.7681C16.9161 15.2989 16.5938 15.7812 16.1875 16.1875C15.7812 16.5938 15.2989 16.9161 14.7681 17.1359C14.2373 17.3558 13.6683 17.469 13.0938 17.469C12.5192 17.469 11.9503 17.3558 11.4194 17.1359C10.8886 16.9161 10.4063 16.5938 10 16.1875L7.57001 13.7563C7.36104 13.5545 7.19434 13.3132 7.07965 13.0463C6.96495 12.7794 6.90454 12.4924 6.90196 12.202C6.89938 11.9115 6.95467 11.6234 7.0646 11.3546C7.17454 11.0857 7.33692 10.8415 7.54227 10.636C7.74762 10.4306 7.99182 10.2681 8.26063 10.1581C8.52945 10.048 8.81749 9.99262 9.10794 9.99508C9.3984 9.99755 9.68545 10.0578 9.95236 10.1724C10.2193 10.287 10.4607 10.4536 10.6625 10.6625L13.5363 13.535L12.6513 14.42L9.77876 11.5463C9.69224 11.4568 9.58875 11.3854 9.47435 11.3363C9.35995 11.2872 9.23692 11.2614 9.11244 11.2604C8.98796 11.2594 8.86452 11.2832 8.74933 11.3303C8.63414 11.3775 8.5295 11.4472 8.44151 11.5353C8.35353 11.6233 8.28397 11.728 8.23688 11.8433C8.1898 11.9585 8.16614 12.082 8.16728 12.2064C8.16842 12.3309 8.19434 12.4539 8.24352 12.5683C8.29271 12.6826 8.36418 12.7861 8.45376 12.8725L10.8838 15.3038C11.4699 15.8899 12.2648 16.2192 13.0938 16.2192C13.5042 16.2192 13.9106 16.1383 14.2898 15.9813C14.669 15.8242 15.0135 15.594 15.3038 15.3038C15.594 15.0135 15.8242 14.669 15.9813 14.2898C16.1383 13.9106 16.2192 13.5042 16.2192 13.0938C16.2192 12.6833 16.1383 12.2769 15.9813 11.8977C15.8242 11.5185 15.594 11.174 15.3038 10.8837L9.11626 4.69625C8.82604 4.40603 8.4815 4.17581 8.1023 4.01875C7.72311 3.86168 7.31669 3.78084 6.90626 3.78084C6.49582 3.78084 6.08941 3.86168 5.71022 4.01875C5.33102 4.17581 4.98648 4.40603 4.69626 4.69625C4.40604 4.98647 4.17582 5.33101 4.01876 5.71021C3.86169 6.0894 3.78085 6.49582 3.78085 6.90625C3.78085 7.31669 3.86169 7.7231 4.01876 8.10229C4.17582 8.48149 4.40604 8.82603 4.69626 9.11625L5.13876 9.5575L4.25501 10.4425L3.81251 10Z" fill="black"/>
</svg>
