<svg width="22" height="22" viewBox="0 0 22 22" fill="none" xmlns="http://www.w3.org/2000/svg">
<path d="M18.3333 15.5833H20.1666V17.4166H1.83331V15.5833H3.66665V9.16665C3.66665 7.22173 4.43926 5.35646 5.81453 3.9812C7.1898 2.60593 9.05506 1.83331 11 1.83331C12.9449 1.83331 14.8102 2.60593 16.1854 3.9812C17.5607 5.35646 18.3333 7.22173 18.3333 9.16665V15.5833ZM16.5 15.5833V9.16665C16.5 7.70796 15.9205 6.30901 14.8891 5.27756C13.8576 4.24611 12.4587 3.66665 11 3.66665C9.54129 3.66665 8.14234 4.24611 7.11089 5.27756C6.07944 6.30901 5.49998 7.70796 5.49998 9.16665V15.5833H16.5ZM8.24998 19.25H13.75V21.0833H8.24998V19.25Z" fill="black"/>
</svg>
