<svg width="28" height="26" viewBox="0 0 28 26" fill="none" xmlns="http://www.w3.org/2000/svg">
<path d="M7.07771 24.1429C6.48543 24.1429 5.99129 23.9449 5.59529 23.5489C5.19929 23.1529 5.00086 22.6587 5 22.0664V3.07643C5 2.485 5.19843 1.99129 5.59529 1.59529C5.99214 1.19929 6.48629 1.00086 7.07771 1H20.9236C21.515 1 22.0091 1.19843 22.406 1.59529C22.8029 1.99214 23.0009 2.48629 23 3.07771V22.0664C23 22.6579 22.802 23.152 22.406 23.5489C22.01 23.9457 21.5154 24.1437 20.9223 24.1429H7.07771ZM7.07771 22.8571H20.9236C21.1207 22.8571 21.302 22.7749 21.4674 22.6103C21.6329 22.4457 21.7151 22.264 21.7143 22.0651V3.07771C21.7143 2.87971 21.632 2.698 21.4674 2.53257C21.3029 2.36714 21.1211 2.28486 20.9223 2.28571H19.1429V9.24657C19.1429 9.454 19.0563 9.60828 18.8831 9.70943C18.71 9.81057 18.533 9.80543 18.3521 9.694L17.0973 8.95086C16.9164 8.83943 16.7381 8.78371 16.5624 8.78371C16.3867 8.78371 16.2084 8.83943 16.0276 8.95086L14.774 9.694C14.5923 9.80543 14.4179 9.81057 14.2507 9.70943C14.0836 9.60828 14 9.454 14 9.24657V2.28571H7.07771C6.87971 2.28571 6.698 2.368 6.53257 2.53257C6.36714 2.69714 6.28486 2.87843 6.28571 3.07643V22.0664C6.28571 22.2636 6.368 22.4449 6.53257 22.6103C6.69714 22.7757 6.87843 22.858 7.07643 22.8571M14 9.271V9.24657C14 9.454 14.0836 9.60828 14.2507 9.70943C14.4179 9.81057 14.5923 9.80543 14.774 9.694L16.0276 8.95086C16.2084 8.83943 16.3867 8.78371 16.5624 8.78371C16.7381 8.78371 16.9164 8.83943 17.0973 8.95086L18.3509 9.694C18.5326 9.80543 18.71 9.81057 18.8831 9.70943C19.0563 9.60828 19.1429 9.454 19.1429 9.24657V9.271C19.1429 9.46214 19.0563 9.60828 18.8831 9.70943C18.71 9.81057 18.5326 9.81357 18.3509 9.71843L17.0973 8.95086C16.9164 8.83943 16.7381 8.78371 16.5624 8.78371C16.3867 8.78371 16.2084 8.83943 16.0276 8.95086L14.774 9.71843C14.5923 9.81357 14.4179 9.81057 14.2507 9.70943C14.0836 9.60828 14 9.46214 14 9.271Z" fill="black"/>
</svg>
