<svg width="30" height="30" viewBox="0 0 30 30" fill="none" xmlns="http://www.w3.org/2000/svg">
<path d="M9.54547 10.5749C9.54547 10.3196 9.64688 10.0748 9.8274 9.89423C10.0079 9.71372 10.2527 9.6123 10.508 9.6123H19.492C19.7473 9.6123 19.9921 9.71372 20.1726 9.89423C20.3532 10.0748 20.4546 10.3196 20.4546 10.5749C20.4546 10.8302 20.3532 11.075 20.1726 11.2555C19.9921 11.436 19.7473 11.5374 19.492 11.5374H10.508C10.2527 11.5374 10.0079 11.436 9.8274 11.2555C9.64688 11.075 9.54547 10.8302 9.54547 10.5749ZM10.508 13.4626C10.2527 13.4626 10.0079 13.564 9.8274 13.7445C9.64688 13.925 9.54547 14.1699 9.54547 14.4251C9.54547 14.6804 9.64688 14.9253 9.8274 15.1058C10.0079 15.2863 10.2527 15.3877 10.508 15.3877H16.9252C17.1804 15.3877 17.4253 15.2863 17.6058 15.1058C17.7863 14.9253 17.8877 14.6804 17.8877 14.4251C17.8877 14.1699 17.7863 13.925 17.6058 13.7445C17.4253 13.564 17.1804 13.4626 16.9252 13.4626H10.508Z" fill="black"/>
<path fill-rule="evenodd" clip-rule="evenodd" d="M9.40085 2.50415C7.63091 2.50415 5.93347 3.20726 4.68193 4.45879C3.4304 5.71032 2.72729 7.40777 2.72729 9.1777V23.2273C2.72729 24.6246 3.28238 25.9647 4.27043 26.9528C5.25848 27.9408 6.59857 28.4959 7.99589 28.4959H23.4504C24.1025 28.4959 24.7279 28.2368 25.189 27.7758C25.6501 27.3147 25.9091 26.6893 25.9091 26.0372V4.96283C25.9091 4.31075 25.6501 3.68537 25.189 3.22428C24.7279 2.76319 24.1025 2.50415 23.4504 2.50415H9.40085ZM23.8017 17.9587V4.96283C23.8017 4.86967 23.7647 4.78033 23.6988 4.71446C23.6329 4.64859 23.5436 4.61159 23.4504 4.61159H9.40085C8.18984 4.61159 7.02843 5.09266 6.17212 5.94897C5.3158 6.80529 4.83473 7.96669 4.83473 9.1777V19.0124C5.74575 18.3266 6.85559 17.9567 7.99589 17.9587H23.8017ZM23.8017 20.0661H7.99589C7.1575 20.0661 6.35345 20.3992 5.76061 20.992C5.16778 21.5848 4.83473 22.3889 4.83473 23.2273C4.83473 24.0657 5.16778 24.8697 5.76061 25.4626C6.35345 26.0554 7.1575 26.3884 7.99589 26.3884H23.4504C23.5436 26.3884 23.6329 26.3514 23.6988 26.2856C23.7647 26.2197 23.8017 26.1304 23.8017 26.0372V20.0661Z" fill="black"/>
</svg>
