<svg width="30" height="30" viewBox="0 0 30 30" fill="none" xmlns="http://www.w3.org/2000/svg">
<path fill-rule="evenodd" clip-rule="evenodd" d="M9.07875 4.07375C9.15306 3.38399 9.47968 2.74603 9.99583 2.28249C10.512 1.81894 11.1812 1.56252 11.875 1.5625H18.125C18.8188 1.56252 19.488 1.81894 20.0042 2.28249C20.5203 2.74603 20.8469 3.38399 20.9212 4.07375C21.875 4.0925 22.7 4.1425 23.405 4.27125C24.3525 4.44625 25.1588 4.7775 25.815 5.43375C26.5675 6.18625 26.89 7.13375 27.0425 8.25875C27.1875 9.34125 27.1875 10.72 27.1875 12.4288V20.0662C27.1875 21.7762 27.1875 23.1537 27.0425 24.2375C26.89 25.3625 26.5675 26.31 25.815 27.0625C25.0625 27.815 24.115 28.1375 22.99 28.29C21.9062 28.435 20.5275 28.435 18.8188 28.435H11.1812C9.4725 28.435 8.09375 28.435 7.01 28.29C5.885 28.1388 4.9375 27.815 4.185 27.0625C3.4325 26.31 3.11 25.3625 2.95875 24.2375C2.8125 23.1537 2.8125 21.775 2.8125 20.0662V12.4288C2.8125 10.72 2.8125 9.34125 2.95875 8.25875C3.10875 7.13375 3.43375 6.18625 4.185 5.43375C4.84125 4.7775 5.6475 4.44625 6.595 4.27125C7.3 4.1425 8.125 4.0925 9.07875 4.07375ZM9.08125 5.94875C8.18375 5.9675 7.49125 6.01375 6.93375 6.11625C6.22625 6.24625 5.815 6.45375 5.51125 6.75875C5.165 7.105 4.94 7.59125 4.81625 8.50875C4.69 9.4525 4.6875 10.7038 4.6875 12.4975V19.9975C4.6875 21.7925 4.69 23.0438 4.81625 23.9875C4.94 24.905 5.16625 25.39 5.51125 25.7375C5.8575 26.0825 6.3425 26.3088 7.26125 26.4313C8.20375 26.5588 9.45625 26.56 11.25 26.56H18.75C20.5438 26.56 21.795 26.5588 22.74 26.4313C23.6575 26.3088 24.1425 26.0825 24.4888 25.7363C24.835 25.3913 25.06 24.905 25.1838 23.9875C25.31 23.0438 25.3125 21.7925 25.3125 19.9975V12.4975C25.3125 10.7038 25.31 9.4525 25.1838 8.5075C25.06 7.59125 24.8337 7.105 24.4888 6.75875C24.1838 6.455 23.7737 6.24625 23.0662 6.11625C22.5087 6.01375 21.8162 5.9675 20.9188 5.94875C20.8393 6.63402 20.5108 7.2662 19.9957 7.72507C19.4806 8.18394 18.8149 8.43749 18.125 8.4375H11.875C11.1853 8.43752 10.5197 8.18415 10.0046 7.72553C9.48956 7.26692 9.16094 6.63504 9.08125 5.95M11.875 3.4375C11.6264 3.4375 11.3879 3.53627 11.2121 3.71209C11.0363 3.8879 10.9375 4.12636 10.9375 4.375V5.625C10.9375 6.1425 11.3575 6.5625 11.875 6.5625H18.125C18.3736 6.5625 18.6121 6.46373 18.7879 6.28791C18.9637 6.1121 19.0625 5.87364 19.0625 5.625V4.375C19.0625 4.12636 18.9637 3.8879 18.7879 3.71209C18.6121 3.53627 18.3736 3.4375 18.125 3.4375H11.875ZM19.435 13.11C19.6047 13.2917 19.6953 13.5333 19.6869 13.7818C19.6785 14.0303 19.5717 14.2653 19.39 14.435L14.0325 19.435C13.8589 19.5972 13.6301 19.6874 13.3925 19.6874C13.1549 19.6874 12.9261 19.5972 12.7525 19.435L10.61 17.435C10.5187 17.3513 10.4448 17.2503 10.3928 17.1379C10.3407 17.0256 10.3114 16.904 10.3066 16.7802C10.3018 16.6564 10.3216 16.5329 10.3648 16.4168C10.408 16.3007 10.4738 16.1943 10.5584 16.1038C10.643 16.0133 10.7446 15.9404 10.8575 15.8895C10.9704 15.8385 11.0923 15.8104 11.2161 15.8067C11.3399 15.8031 11.4632 15.8241 11.5789 15.8684C11.6946 15.9128 11.8003 15.9796 11.89 16.065L13.3925 17.4675L18.11 13.065C18.2917 12.8953 18.5333 12.8047 18.7818 12.8131C19.0303 12.8215 19.2653 12.9283 19.435 13.11Z" fill="black"/>
</svg>
