<svg width="30" height="30" viewBox="0 0 30 30" fill="none" xmlns="http://www.w3.org/2000/svg">
<path d="M11.8087 19.2475C11.7102 19.1708 11.5973 19.1146 11.4766 19.0821C11.356 19.0496 11.2302 19.0416 11.1064 19.0584C10.9827 19.0753 10.8635 19.1167 10.756 19.1803C10.6485 19.2438 10.5547 19.3282 10.4803 19.4285C10.4058 19.5287 10.3522 19.6429 10.3224 19.7642C10.2927 19.8855 10.2875 20.0115 10.3071 20.1349C10.3268 20.2582 10.3709 20.3764 10.4369 20.4824C10.5028 20.5885 10.5893 20.6803 10.6912 20.7525C11.9355 21.6823 13.4467 22.1856 15 22.1875C16.5533 22.1856 18.0645 21.6823 19.3087 20.7525C19.4107 20.6803 19.4971 20.5885 19.5631 20.4824C19.629 20.3764 19.6731 20.2582 19.6928 20.1349C19.7124 20.0115 19.7073 19.8855 19.6775 19.7642C19.6478 19.6429 19.5941 19.5287 19.5197 19.4285C19.4452 19.3282 19.3515 19.2438 19.2439 19.1803C19.1364 19.1167 19.0173 19.0753 18.8935 19.0584C18.7698 19.0416 18.6439 19.0496 18.5233 19.0821C18.4027 19.1146 18.2898 19.1708 18.1912 19.2475C17.2701 19.9372 16.1507 20.3108 15 20.3125C13.8492 20.3108 12.7299 19.9372 11.8087 19.2475Z" fill="white"/>
<path fill-rule="evenodd" clip-rule="evenodd" d="M15 1.5625C14.115 1.5625 13.3112 1.81625 12.4375 2.24C11.595 2.65 10.62 3.255 9.40375 4.01L6.82 5.61375C5.67 6.32875 4.74625 6.90125 4.03625 7.445C3.3 8.0075 2.735 8.5825 2.32625 9.32875C1.91875 10.0725 1.73625 10.865 1.6475 11.8012C1.5625 12.7075 1.5625 13.8175 1.5625 15.2087V17.225C1.5625 19.605 1.5625 21.4837 1.75375 22.9525C1.94875 24.4587 2.36125 25.675 3.29125 26.6362C4.225 27.6025 5.4125 28.035 6.885 28.2387C8.31 28.4375 10.1325 28.4375 12.4275 28.4375H17.5725C19.8675 28.4375 21.69 28.4375 23.115 28.2387C24.5862 28.035 25.775 27.6025 26.71 26.6362C27.6387 25.675 28.0512 24.4587 28.2475 22.9525C28.4375 21.4837 28.4375 19.605 28.4375 17.225V15.2087C28.4375 13.8175 28.4375 12.7087 28.3525 11.8012C28.265 10.8637 28.0812 10.0725 27.6737 9.32875C27.265 8.5825 26.6987 8.00875 25.9637 7.445C25.2537 6.9 24.3312 6.32875 23.18 5.61375L20.5962 4.01C19.38 3.255 18.405 2.65 17.5612 2.24C16.69 1.815 15.8862 1.5625 15 1.5625ZM10.35 5.63C11.6187 4.8425 12.5125 4.29 13.2587 3.92625C13.985 3.5725 14.5 3.4375 15 3.4375C15.5 3.4375 16.015 3.5725 16.7412 3.92625C17.4887 4.28875 18.3812 4.8425 19.65 5.63L22.15 7.18125C23.3512 7.9275 24.195 8.45125 24.825 8.93375C25.4362 9.4025 25.7875 9.78875 26.0287 10.2287C26.27 10.67 26.4112 11.1862 26.485 11.9762C26.5612 12.7862 26.5625 13.8075 26.5625 15.255V17.1562C26.5625 19.6187 26.56 21.3762 26.3875 22.71C26.2175 24.02 25.8962 24.78 25.3625 25.3337C24.8312 25.8825 24.1087 26.2087 22.8575 26.3825C21.575 26.56 19.8837 26.5625 17.5 26.5625H12.5C10.115 26.5625 8.425 26.56 7.1425 26.3825C5.89125 26.2075 5.16875 25.8825 4.63875 25.3325C4.10375 24.78 3.7825 24.02 3.61375 22.71C3.43875 21.3762 3.4375 19.62 3.4375 17.1562V15.255C3.4375 13.8075 3.4375 12.7862 3.515 11.9762C3.58875 11.1862 3.73 10.67 3.97125 10.2287C4.2125 9.78875 4.56375 9.4025 5.17625 8.93375C5.805 8.45125 6.64875 7.9275 7.85 7.18125L10.35 5.63Z" fill="white"/>
</svg>
