<svg width="24" height="24" viewBox="0 0 24 24" fill="none" xmlns="http://www.w3.org/2000/svg">
<path d="M4 3.25C3.80109 3.25 3.61032 3.32902 3.46967 3.46967C3.32902 3.61032 3.25 3.80109 3.25 4C3.25 4.19891 3.32902 4.38968 3.46967 4.53033C3.61032 4.67098 3.80109 4.75 4 4.75H5.25V6C5.24975 7.23925 5.59066 8.45466 6.23537 9.513C6.88007 10.5713 7.8037 11.4318 8.905 12C7.8037 12.5682 6.88007 13.4287 6.23537 14.487C5.59066 15.5453 5.24975 16.7607 5.25 18V19.25H4C3.80109 19.25 3.61032 19.329 3.46967 19.4697C3.32902 19.6103 3.25 19.8011 3.25 20C3.25 20.1989 3.32902 20.3897 3.46967 20.5303C3.61032 20.671 3.80109 20.75 4 20.75H20C20.1989 20.75 20.3897 20.671 20.5303 20.5303C20.671 20.3897 20.75 20.1989 20.75 20C20.75 19.8011 20.671 19.6103 20.5303 19.4697C20.3897 19.329 20.1989 19.25 20 19.25H18.75V18C18.7503 16.7607 18.4093 15.5453 17.7646 14.487C17.1199 13.4287 16.1963 12.5682 15.095 12C16.1963 11.4318 17.1199 10.5713 17.7646 9.513C18.4093 8.45466 18.7503 7.23925 18.75 6V4.75H20C20.1989 4.75 20.3897 4.67098 20.5303 4.53033C20.671 4.38968 20.75 4.19891 20.75 4C20.75 3.80109 20.671 3.61032 20.5303 3.46967C20.3897 3.32902 20.1989 3.25 20 3.25H4ZM11.99 12.75H12.01C13.4007 12.7526 14.7334 13.3069 15.7158 14.2912C16.6983 15.2755 17.25 16.6093 17.25 18V19.25H6.75V18C6.75 16.6093 7.30175 15.2755 8.28415 14.2912C9.26656 13.3069 10.5993 12.7526 11.99 12.75ZM12.01 11.25H11.99C10.5993 11.2474 9.26656 10.6931 8.28415 9.70878C7.30175 8.7245 6.75 7.39066 6.75 6V4.75H17.25V6C17.25 7.39066 16.6983 8.7245 15.7158 9.70878C14.7334 10.6931 13.4007 11.2474 12.01 11.25Z" fill="black"/>
</svg>
