<svg width="34" height="34" viewBox="0 0 34 34" fill="none" xmlns="http://www.w3.org/2000/svg">
<path fill-rule="evenodd" clip-rule="evenodd" d="M7.79175 17C7.79175 19.4422 8.76191 21.7844 10.4888 23.5113C12.2157 25.2382 14.5579 26.2084 17.0001 26.2084C19.4423 26.2084 21.7845 25.2382 23.5114 23.5113C25.2383 21.7844 26.2084 19.4422 26.2084 17C26.2084 14.5578 25.2383 12.2156 23.5114 10.4887C21.7845 8.76185 19.4423 7.79169 17.0001 7.79169C14.5579 7.79169 12.2157 8.76185 10.4888 10.4887C8.76191 12.2156 7.79175 14.5578 7.79175 17ZM17.0001 5.66669C13.9943 5.66669 11.1116 6.86073 8.9862 8.98614C6.86079 11.1116 5.66675 13.9942 5.66675 17C5.66675 20.0058 6.86079 22.8885 8.9862 25.0139C11.1116 27.1393 13.9943 28.3334 17.0001 28.3334C20.0059 28.3334 22.8885 27.1393 25.014 25.0139C27.1394 22.8885 28.3334 20.0058 28.3334 17C28.3334 13.9942 27.1394 11.1116 25.014 8.98614C22.8885 6.86073 20.0059 5.66669 17.0001 5.66669ZM18.0626 11.3334V13.4584H15.9376V11.3334H18.0626ZM18.0626 22.6667V15.5834H15.9376V22.6667H18.0626Z" fill="black"/>
</svg>
