<svg width="25" height="25" viewBox="0 0 25 25" fill="none" xmlns="http://www.w3.org/2000/svg">
<path d="M21.3336 4.77109L23.4375 2.66719L22.3328 1.5625L20.2289 3.66641L19.375 2.8125C19.2339 2.66434 19.0643 2.54639 18.8763 2.46579C18.6882 2.38519 18.4858 2.34363 18.2812 2.34363C18.0767 2.34363 17.8743 2.38519 17.6862 2.46579C17.4982 2.54639 17.3286 2.66434 17.1875 2.8125L3.125 16.875V21.875H8.125L22.1875 7.8125C22.3357 7.67145 22.4536 7.50177 22.5342 7.31376C22.6148 7.12574 22.6564 6.92331 22.6564 6.71875C22.6564 6.51419 22.6148 6.31176 22.5342 6.12374C22.4536 5.93573 22.3357 5.76605 22.1875 5.625L21.3336 4.77109ZM7.5 20.3125H4.6875V17.5L18.2812 3.90625L21.0938 6.71875L7.5 20.3125ZM7.03125 9.05156L12.9578 3.125L14.0625 4.22969L8.13594 10.1562L7.03125 9.05156Z" fill="black"/>
</svg>
