<svg width="30" height="30" viewBox="0 0 30 30" fill="none" xmlns="http://www.w3.org/2000/svg">
<path d="M14.3178 1.36365C15.833 1.36316 17.3085 1.87633 18.5277 2.82785C19.7468 3.77937 20.6455 5.11912 21.0917 6.65046C21.5379 8.1818 21.5082 9.82408 21.0069 11.3363C20.5057 12.8484 19.5592 14.1508 18.3065 15.0524C20.4809 15.8957 22.3667 17.408 23.7214 19.3944C25.0761 21.3809 25.8376 23.7507 25.9079 26.1987C25.9144 26.3346 25.8953 26.4705 25.8515 26.5984C25.8077 26.7264 25.7403 26.8438 25.653 26.9438C25.5658 27.0438 25.4605 27.1244 25.3434 27.1808C25.2264 27.2372 25.0998 27.2683 24.9712 27.2723C24.8426 27.2763 24.7145 27.2531 24.5945 27.204C24.4745 27.155 24.365 27.0811 24.2723 26.9867C24.1797 26.8923 24.1058 26.7792 24.055 26.6542C24.0042 26.5292 23.9776 26.3947 23.9766 26.2587C23.8999 23.6038 22.8487 21.0849 21.0458 19.2357C19.2429 17.3865 16.83 16.3523 14.3184 16.3523C11.8068 16.3523 9.39394 17.3865 7.59106 19.2357C5.78817 21.0849 4.73699 23.6038 4.66027 26.2587C4.65258 26.5297 4.5434 26.7864 4.35676 26.9722C4.17011 27.1581 3.92128 27.258 3.66501 27.2499C3.40874 27.2417 3.16602 27.1263 2.99025 26.9289C2.81447 26.7315 2.72004 26.4684 2.72773 26.1973C2.79827 23.7495 3.55987 21.3801 4.91454 19.3939C6.2692 17.4077 8.15493 15.8956 10.329 15.0524C9.07635 14.1508 8.12991 12.8484 7.62864 11.3363C7.12737 9.82408 7.09766 8.1818 7.54388 6.65046C7.9901 5.11912 8.88874 3.77937 10.1079 2.82785C11.3271 1.87633 12.8026 1.36316 14.3178 1.36365ZM9.16436 8.85722C9.16436 10.3026 9.70731 11.6888 10.6738 12.7109C11.6402 13.7329 12.951 14.3071 14.3178 14.3071C15.6846 14.3071 16.9954 13.7329 17.9618 12.7109C18.9283 11.6888 19.4712 10.3026 19.4712 8.85722C19.4712 7.41183 18.9283 6.02563 17.9618 5.00358C16.9954 3.98153 15.6846 3.40735 14.3178 3.40735C12.951 3.40735 11.6402 3.98153 10.6738 5.00358C9.70731 6.02563 9.16436 7.41183 9.16436 8.85722Z" fill="black"/>
</svg>
