<svg width="25" height="25" viewBox="0 0 25 25" fill="none" xmlns="http://www.w3.org/2000/svg">
<path d="M8.68041 5.1836C8.62401 5.1254 8.55702 5.07923 8.48326 5.04772C8.4095 5.01622 8.33043 5 8.25057 5C8.17072 5 8.09164 5.01622 8.01789 5.04772C7.94413 5.07923 7.87713 5.1254 7.82073 5.1836L4.17804 8.93332C4.06404 9.05067 4 9.20983 4 9.37579C4 9.54174 4.06404 9.7009 4.17804 9.81825C4.29204 9.9356 4.44666 10.0015 4.60788 10.0015C4.7691 10.0015 4.92372 9.9356 5.03772 9.81825L7.64346 7.13471V19.375C7.64346 19.5408 7.70742 19.6997 7.82128 19.8169C7.93513 19.9341 8.08956 20 8.25057 20C8.41159 20 8.56601 19.9341 8.67987 19.8169C8.79372 19.6997 8.85769 19.5408 8.85769 19.375V7.13471L11.4634 9.81825C11.5774 9.9356 11.732 10.0015 11.8933 10.0015C12.0545 10.0015 12.2091 9.9356 12.3231 9.81825C12.4371 9.7009 12.5011 9.54174 12.5011 9.37579C12.5011 9.20983 12.4371 9.05067 12.3231 8.93332L8.68041 5.1836ZM16.3288 19.825C16.442 19.9373 16.593 20 16.7502 20C16.9073 20 17.0584 19.9373 17.1715 19.825L20.8142 16.2003C20.8716 16.1433 20.9176 16.0753 20.9494 16C20.9813 15.9248 20.9984 15.8439 20.9999 15.7618C21.0014 15.6797 20.9871 15.5982 20.958 15.5218C20.9288 15.4454 20.8853 15.3757 20.83 15.3166C20.7747 15.2575 20.7086 15.2102 20.6355 15.1774C20.5624 15.1446 20.4838 15.127 20.404 15.1254C20.3243 15.1239 20.2451 15.1386 20.1709 15.1686C20.0967 15.1986 20.0289 15.2434 19.9715 15.3003L17.3573 17.9014V5.62732C17.3573 5.46157 17.2933 5.30261 17.1795 5.18541C17.0656 5.06821 16.9112 5.00237 16.7502 5.00237C16.5892 5.00237 16.4347 5.06821 16.3209 5.18541C16.207 5.30261 16.1431 5.46157 16.1431 5.62732V17.9014L13.53 15.3016C13.4729 15.2437 13.4053 15.1981 13.331 15.1673C13.2567 15.1364 13.1771 15.1211 13.097 15.122C13.0169 15.123 12.9378 15.1403 12.8642 15.1729C12.7906 15.2055 12.724 15.2527 12.6682 15.312C12.6124 15.3712 12.5686 15.4412 12.5392 15.5179C12.5099 15.5947 12.4956 15.6766 12.4971 15.7591C12.4987 15.8415 12.5161 15.9229 12.5483 15.9984C12.5805 16.0739 12.627 16.1421 12.6849 16.199L16.3288 19.825Z" fill="black"/>
</svg>
